<svg width="29" height="10" viewBox="0 0 29 10" fill="none" xmlns="http://www.w3.org/2000/svg">
<path d="M0.660511 9V0.272727H2.76989V3.96307H2.88494L5.76989 0.272727H8.25426L5.16051 4.16761L8.30966 9H5.78693L3.61364 5.5696L2.76989 6.63494V9H0.660511ZM9.08629 0.272727H11.6985L13.9144 5.67614H14.0167L16.2326 0.272727H18.8448V9H16.7908V3.6392H16.7184L14.6218 8.9446H13.3093L11.2127 3.60938H11.1403V9H9.08629V0.272727ZM25.8878 3.12358C25.8395 2.9446 25.7685 2.78693 25.6747 2.65057C25.581 2.51136 25.4659 2.39347 25.3295 2.29688C25.1932 2.20028 25.0369 2.12784 24.8608 2.07955C24.6847 2.02841 24.4915 2.00284 24.2812 2.00284C23.858 2.00284 23.4915 2.10511 23.1818 2.30966C22.875 2.5142 22.6378 2.8125 22.4702 3.20455C22.3026 3.59375 22.2188 4.06676 22.2188 4.62358C22.2188 5.18324 22.2997 5.66051 22.4616 6.0554C22.6236 6.45028 22.858 6.75142 23.1648 6.95881C23.4716 7.16619 23.8438 7.26989 24.2812 7.26989C24.6676 7.26989 24.9943 7.20739 25.2614 7.08239C25.5313 6.95455 25.7358 6.77415 25.875 6.54119C26.0142 6.30824 26.0838 6.03409 26.0838 5.71875L26.4759 5.76562H24.3537V4.22727H28.1165V5.3821C28.1165 6.16335 27.9503 6.83239 27.6179 7.3892C27.2884 7.94602 26.8338 8.37358 26.2543 8.67188C25.6776 8.97017 25.0142 9.11932 24.2642 9.11932C23.4318 9.11932 22.7003 8.93892 22.0696 8.57812C21.4389 8.21733 20.9474 7.70312 20.5952 7.03551C20.2429 6.36506 20.0668 5.5696 20.0668 4.64915C20.0668 3.93324 20.1733 3.2983 20.3864 2.74432C20.5994 2.1875 20.8963 1.71591 21.277 1.32955C21.6605 0.943182 22.1037 0.650568 22.6065 0.451704C23.1122 0.252841 23.6563 0.153409 24.2386 0.153409C24.7443 0.153409 25.2145 0.225852 25.6491 0.370739C26.0866 0.515625 26.473 0.72017 26.8082 0.984375C27.1463 1.24858 27.4205 1.5625 27.6307 1.92614C27.8409 2.28977 27.9716 2.68892 28.0227 3.12358H25.8878Z" fill="white"/>
</svg>
