<svg xmlns="http://www.w3.org/2000/svg" width="191" height="31" viewBox="0 0 191 31" fill="none">
<path d="M57.4209 17.2375L64.4595 0.317871H66.9135L74.0286 17.2375H70.58L68.7497 12.8766H62.7469L60.8637 17.2375H57.4209ZM63.5649 10.1519H67.6904L65.713 4.87293L65.6365 4.24322L65.5659 4.87293L63.5649 10.1519Z" fill="#46B651"/>
<path d="M84.2738 4.7258H87.287V17.2375H84.5151V15.9134C84.2915 16.29 84.0502 16.5862 83.7913 16.802C83.1282 17.367 82.2925 17.6495 81.2842 17.6495C79.6874 17.6495 78.3711 17.0708 77.3353 15.9134C76.8684 15.3837 76.5546 14.8403 76.3937 14.2832C76.2328 13.7221 76.1524 12.8904 76.1524 11.7879V4.7258H79.142V10.8757C79.142 12.0449 79.2696 12.8963 79.5246 13.4298C79.9522 14.2812 80.6839 14.7069 81.7197 14.7069C82.5868 14.7069 83.2283 14.393 83.6441 13.7653C84.0639 13.1376 84.2738 12.1744 84.2738 10.8757V4.7258Z" fill="#46B651"/>
<path d="M90.8703 17.2375V7.37997H89.399V4.7258H90.8703V0.529734H93.8835V4.7258H95.6902V7.37997H93.8835V17.2375H90.8703Z" fill="#46B651"/>
<path d="M104.011 4.31973C105.239 4.31973 106.365 4.61398 107.389 5.20249C108.413 5.791 109.219 6.59726 109.808 7.62126C110.396 8.64527 110.691 9.76932 110.691 10.9934C110.691 12.1979 110.392 13.3121 109.796 14.3361C109.204 15.3562 108.395 16.1644 107.371 16.7608C106.351 17.3532 105.239 17.6495 104.035 17.6495C102.838 17.6495 101.73 17.3513 100.709 16.7549C99.6894 16.1546 98.8792 15.3425 98.2789 14.3185C97.6826 13.2906 97.3844 12.1744 97.3844 10.9699C97.3844 9.77717 97.6826 8.67273 98.2789 7.65657C98.8792 6.63649 99.6894 5.82631 100.709 5.22603C101.73 4.62183 102.83 4.31973 104.011 4.31973ZM104.011 7.25639C103.34 7.27993 102.728 7.4604 102.175 7.79782C101.622 8.1313 101.186 8.57661 100.868 9.13373C100.555 9.69085 100.398 10.3029 100.398 10.9699C100.398 12.0253 100.749 12.912 101.451 13.6299C102.153 14.3479 103.014 14.7069 104.035 14.7069C104.713 14.7069 105.333 14.546 105.894 14.2243C106.455 13.9026 106.897 13.4593 107.218 12.8943C107.54 12.3254 107.701 11.6996 107.701 11.017C107.701 10.3461 107.536 9.72224 107.207 9.1455C106.877 8.56876 106.436 8.10973 105.882 7.76839C105.333 7.42706 104.741 7.25639 104.105 7.25639H104.011Z" fill="#46B651"/>
<path d="M113.279 17.2375V4.7258H116.028V5.86162C116.651 4.83369 117.744 4.31973 119.306 4.31973C120.8 4.31973 121.974 4.90628 122.825 6.07937L122.896 6.17353L122.966 6.24415C123.233 5.84789 123.572 5.50656 123.984 5.22015C124.4 4.92982 124.867 4.70815 125.385 4.55513C125.907 4.3982 126.444 4.31973 126.997 4.31973C128.575 4.31973 129.826 4.83369 130.752 5.86162C131.243 6.4109 131.582 6.99941 131.77 7.62715C131.962 8.25489 132.059 9.11215 132.059 10.1989V17.2375H129.045V10.5579C129.045 9.40837 128.892 8.61388 128.586 8.17446C128.406 7.88805 128.145 7.66442 127.804 7.50356C127.466 7.33878 127.099 7.25639 126.703 7.25639C125.789 7.25639 125.099 7.6193 124.632 8.34513C124.451 8.65508 124.33 9.00426 124.267 9.39267C124.204 9.78109 124.173 10.4108 124.173 11.2818V17.2375H121.159V10.5579C121.159 9.49861 120.999 8.73551 120.677 8.26862C120.23 7.5938 119.555 7.25639 118.652 7.25639C117.997 7.25639 117.475 7.4506 117.087 7.83901C116.785 8.12934 116.573 8.53149 116.451 9.04545C116.33 9.55942 116.269 10.3049 116.269 11.2818V17.2375H113.279Z" fill="#46B651"/>
<path d="M147.889 4.7258V17.2375H145.14V15.5485C144.799 15.9526 144.513 16.2488 144.281 16.4371C144.05 16.6254 143.734 16.8197 143.334 17.0197C142.545 17.4395 141.686 17.6495 140.756 17.6495C139.607 17.6495 138.569 17.3611 137.643 16.7843C136.721 16.2037 135.997 15.4033 135.471 14.3832C134.946 13.3592 134.683 12.2136 134.683 10.9463C134.683 9.72224 134.957 8.60407 135.507 7.59184C136.056 6.57568 136.805 5.77727 137.755 5.19661C138.708 4.61202 139.756 4.31973 140.897 4.31973C141.819 4.31973 142.624 4.50413 143.31 4.87293C143.679 5.05733 143.987 5.25938 144.234 5.47909C144.485 5.6988 144.787 6.03425 145.14 6.48544V4.7258H147.889ZM145.046 11.017C145.046 10.2911 144.893 9.64181 144.587 9.06899C144.285 8.49618 143.858 8.05087 143.304 7.73308C142.755 7.41529 142.131 7.25639 141.433 7.25639C140.723 7.25639 140.081 7.41921 139.508 7.74485C138.94 8.07049 138.494 8.52168 138.173 9.09842C137.855 9.67124 137.696 10.3186 137.696 11.0405C137.696 11.7271 137.857 12.3509 138.178 12.912C138.5 13.473 138.943 13.9124 139.508 14.2302C140.073 14.548 140.705 14.7069 141.403 14.7069C142.098 14.7069 142.722 14.548 143.275 14.2302C143.828 13.9085 144.262 13.4671 144.575 12.9061C144.889 12.3411 145.046 11.7114 145.046 11.017Z" fill="#46B651"/>
<path d="M151.319 17.2375V7.37997H149.848V4.7258H151.319V0.529734H154.332V4.7258H156.139V7.37997H154.332V17.2375H151.319Z" fill="#46B651"/>
<path d="M158.386 17.2375V4.7258H161.376V17.2375H158.386ZM158.386 3.27807V0.529734H161.376V3.27807H158.386Z" fill="#46B651"/>
<path d="M170.621 4.31973C171.849 4.31973 172.975 4.61398 173.999 5.20249C175.023 5.791 175.829 6.59726 176.418 7.62126C177.006 8.64527 177.3 9.76932 177.3 10.9934C177.3 12.1979 177.002 13.3121 176.406 14.3361C175.813 15.3562 175.005 16.1644 173.981 16.7608C172.961 17.3532 171.849 17.6495 170.644 17.6495C169.448 17.6495 168.339 17.3513 167.319 16.7549C166.299 16.1546 165.489 15.3425 164.889 14.3185C164.292 13.2906 163.994 12.1744 163.994 10.9699C163.994 9.77717 164.292 8.67273 164.889 7.65657C165.489 6.63649 166.299 5.82631 167.319 5.22603C168.339 4.62183 169.44 4.31973 170.621 4.31973ZM170.621 7.25639C169.95 7.27993 169.338 7.4604 168.785 7.79782C168.231 8.1313 167.796 8.57661 167.478 9.13373C167.164 9.69085 167.007 10.3029 167.007 10.9699C167.007 12.0253 167.358 12.912 168.061 13.6299C168.763 14.3479 169.624 14.7069 170.644 14.7069C171.323 14.7069 171.943 14.546 172.504 14.2243C173.065 13.9026 173.506 13.4593 173.828 12.8943C174.15 12.3254 174.311 11.6996 174.311 11.017C174.311 10.3461 174.146 9.72224 173.816 9.1455C173.487 8.56876 173.045 8.10973 172.492 7.76839C171.943 7.42706 171.351 7.25639 170.715 7.25639H170.621Z" fill="#46B651"/>
<path d="M179.889 17.2375V4.7258H182.661V5.86162C183.077 5.38297 183.51 5.0279 183.962 4.79642C184.629 4.47863 185.337 4.31973 186.086 4.31973C187.561 4.31973 188.815 4.89647 189.847 6.04995C189.945 6.15588 190 6.21277 190.011 6.22061C190.388 6.7385 190.647 7.32505 190.788 7.98025C190.929 8.63154 191 9.5555 191 10.7521V17.2375H187.987V11.3289C187.987 9.8419 187.818 8.82967 187.481 8.29216C187.285 7.98614 187.002 7.737 186.633 7.54476C186.265 7.35251 185.88 7.25639 185.48 7.25639C185.052 7.25639 184.646 7.3584 184.262 7.56241C183.881 7.76251 183.589 8.03126 183.385 8.36867C183.193 8.66685 183.059 9.03957 182.985 9.48684C182.914 9.9341 182.879 10.6285 182.879 11.5702V17.2375H179.889Z" fill="#46B651"/>
<path d="M1.56543 17.2374V0.317795H4.70218V7.64473L9.95756 0.317795H13.7181L7.52114 7.95664L13.7181 17.2374H9.95756L4.70218 8.82174V17.2374H1.56543Z" fill="white"/>
<path d="M16.4834 17.2374V0.317795H20.7501L25.3052 12.853L25.4994 13.8653L25.6936 12.853L29.8896 0.317795H34.1563V17.2374H31.0196V4.56094L26.6352 17.2374H23.981L19.6202 4.56094V17.2374H16.4834Z" fill="white"/>
<path d="M54.1473 5.27892H50.3867C50.0257 4.83166 49.7217 4.50209 49.4745 4.29023C49.2273 4.07836 48.9056 3.87043 48.5093 3.66641C47.6462 3.24661 46.785 3.0367 45.9258 3.0367C44.8861 3.0367 43.917 3.29761 43.0186 3.81942C42.124 4.33731 41.4119 5.0396 40.8823 5.92628C40.3565 6.80904 40.0937 7.75851 40.0937 8.77466C40.0937 9.79475 40.3663 10.754 40.9117 11.6525C41.4571 12.5509 42.1888 13.2689 43.1068 13.8064C44.0249 14.3439 45.0058 14.6127 46.0494 14.6127C47.4579 14.6127 48.7192 14.1046 49.8335 13.0884C50.2376 12.7471 50.6397 12.2331 51.0399 11.5465H43.9543V8.60988H54.9947V8.96887C54.9947 10.5422 54.5926 11.9958 53.7883 13.3297C52.9879 14.6597 51.8992 15.7132 50.522 16.49C49.1449 17.2629 47.6384 17.6494 46.0023 17.6494C44.3623 17.6494 42.8479 17.259 41.459 16.4782C40.0741 15.6936 38.9755 14.6264 38.1634 13.2768C37.3512 11.9232 36.9432 10.4558 36.9393 8.87471C36.9393 7.27789 37.3434 5.79681 38.1516 4.43147C38.9637 3.06613 40.0623 1.9872 41.4472 1.19467C42.8361 0.398224 44.3388 0 45.9552 0C46.7399 0 47.5285 0.107893 48.321 0.32368C49.1135 0.535543 49.861 0.845491 50.5632 1.25352C51.2695 1.65763 51.9109 2.14806 52.4877 2.7248C53.084 3.34861 53.6372 4.19999 54.1473 5.27892Z" fill="white"/>
<path d="M0 29.7791L1.92558 25.072H2.42171L4.33178 29.7791H3.85116L3.2093 28.1948H1.13178L0.483721 29.7791H0ZM2.20465 25.6612L2.17364 25.5336L2.14264 25.6612L1.30853 27.7725H3.03256L2.20465 25.6612Z" fill="#46B651"/>
<path d="M6.99845 27.3372L8.96744 25.072H9.51318L7.57829 27.3241L9.64651 29.7791H9.07597L6.99845 27.3372ZM6.97985 25.072V29.7791H6.53333V25.072H6.97985Z" fill="#46B651"/>
<path d="M13.4295 26.293V29.7758H12.9953V29.1211C12.9147 29.2673 12.8238 29.3906 12.7225 29.491C12.4517 29.7354 12.1178 29.8576 11.7209 29.8576C11.4563 29.8576 11.1876 29.7889 10.9147 29.6514C10.6419 29.5117 10.4258 29.335 10.2667 29.1211C10.1674 28.9836 10.0879 28.8178 10.0279 28.6236C9.97003 28.4272 9.94108 28.2308 9.94108 28.0344C9.94108 27.707 10.0196 27.4037 10.1767 27.1244C10.3359 26.8451 10.5519 26.6247 10.8248 26.4632C11.0956 26.2995 11.3902 26.2177 11.7085 26.2177C11.907 26.2177 12.0941 26.2504 12.2698 26.3159C12.4475 26.3813 12.6005 26.4763 12.7287 26.6007C12.8279 26.6923 12.9168 26.8112 12.9953 26.9574V26.2897L13.4295 26.293ZM11.7333 26.6661C11.4853 26.6661 11.2579 26.7283 11.0512 26.8527C10.8444 26.9749 10.6822 27.1418 10.5643 27.3535C10.4465 27.5652 10.3876 27.7965 10.3876 28.0475C10.3876 28.2919 10.4475 28.5188 10.5674 28.7283C10.6873 28.9356 10.8486 29.1015 11.0512 29.2259C11.2558 29.3481 11.477 29.4092 11.7147 29.4092C11.9421 29.4092 12.154 29.3481 12.3504 29.2259C12.5488 29.1015 12.7059 28.9356 12.8217 28.7283C12.9375 28.5188 12.9953 28.2919 12.9953 28.0475C12.9953 27.8031 12.9385 27.5739 12.8248 27.3601C12.7111 27.1462 12.5571 26.9771 12.3628 26.8527C12.1685 26.7283 11.9587 26.6661 11.7333 26.6661Z" fill="#46B651"/>
<path d="M13.8667 29.7791V29.3633L15.6775 26.7218H13.9318V26.293H16.1985V26.7218L14.4 29.3502H16.3132V29.7791H13.8667Z" fill="#46B651"/>
<path d="M19.1349 29.0818L19.1721 29.2488L19.2124 29.0818L20.7721 25.072H21.4667V29.7791H21.014V25.5957L19.3395 29.7791H18.9581L17.2806 25.5957V29.7791H16.8341V25.072H17.5225L19.1349 29.0818Z" fill="#46B651"/>
<path d="M25.2124 26.293V29.7758H24.7938V29.2357C24.7111 29.3732 24.6305 29.4779 24.5519 29.5499C24.3494 29.7507 24.0599 29.8511 23.6837 29.8511C23.2062 29.8511 22.8434 29.6885 22.5953 29.3633C22.4961 29.2302 22.4217 29.0829 22.3721 28.9214C22.3163 28.7294 22.2884 28.4654 22.2884 28.1293V26.293H22.7411V28.1293C22.7411 28.2799 22.7525 28.4337 22.7752 28.5908C22.8021 28.7567 22.8599 28.9007 22.9488 29.0229C23.0377 29.1451 23.1504 29.2379 23.2868 29.3011C23.4253 29.3688 23.5783 29.4026 23.7457 29.4026C23.9173 29.4026 24.0786 29.3644 24.2295 29.2881C24.3824 29.2117 24.5044 29.1069 24.5953 28.9738C24.6636 28.88 24.709 28.7752 24.7318 28.6596C24.7545 28.5417 24.7659 28.365 24.7659 28.1293V26.293H25.2124Z" fill="#46B651"/>
<path d="M25.9752 29.7791V26.2897H26.3938V26.8363C26.4786 26.6967 26.5571 26.5908 26.6295 26.5188C26.8444 26.3181 27.137 26.2177 27.507 26.2177C27.9804 26.2177 28.3421 26.3835 28.5922 26.7152C28.6915 26.8462 28.7659 26.9935 28.8155 27.1571C28.8693 27.3492 28.8961 27.611 28.8961 27.9427V29.7791H28.4434V27.9427C28.4434 27.7878 28.4331 27.635 28.4124 27.4845C28.3731 27.227 28.2687 27.0262 28.0992 26.8822C27.9297 26.7381 27.7147 26.6661 27.4543 26.6661C27.2806 26.6661 27.1142 26.7065 26.955 26.7872C26.8021 26.8636 26.6811 26.9673 26.5922 27.0982C26.524 27.192 26.4775 27.2979 26.4527 27.4157C26.43 27.5336 26.4186 27.7092 26.4186 27.9427V29.7791H25.9752Z" fill="#46B651"/>
<path d="M33.014 26.293V29.7758H32.5798V29.1211C32.4992 29.2673 32.4083 29.3906 32.307 29.491C32.0362 29.7354 31.7023 29.8576 31.3054 29.8576C31.0408 29.8576 30.7721 29.7889 30.4992 29.6514C30.2264 29.5117 30.0103 29.335 29.8512 29.1211C29.7519 28.9836 29.6724 28.8178 29.6124 28.6236C29.5545 28.4272 29.5256 28.2308 29.5256 28.0344C29.5256 27.707 29.6041 27.4037 29.7612 27.1244C29.9204 26.8451 30.1364 26.6247 30.4093 26.4632C30.6801 26.2995 30.9747 26.2177 31.293 26.2177C31.4915 26.2177 31.6786 26.2504 31.8543 26.3159C32.032 26.3813 32.185 26.4763 32.3132 26.6007C32.4124 26.6923 32.5013 26.8112 32.5798 26.9574V26.2897L33.014 26.293ZM31.3178 26.6661C31.0698 26.6661 30.8424 26.7283 30.6357 26.8527C30.4289 26.9749 30.2667 27.1418 30.1488 27.3535C30.031 27.5652 29.9721 27.7965 29.9721 28.0475C29.9721 28.2919 30.032 28.5188 30.1519 28.7283C30.2718 28.9356 30.4331 29.1015 30.6357 29.2259C30.8403 29.3481 31.0615 29.4092 31.2992 29.4092C31.5266 29.4092 31.7385 29.3481 31.9349 29.2259C32.1333 29.1015 32.2904 28.9356 32.4062 28.7283C32.522 28.5188 32.5798 28.2919 32.5798 28.0475C32.5798 27.8031 32.523 27.5739 32.4093 27.3601C32.2956 27.1462 32.1416 26.9771 31.9473 26.8527C31.753 26.7283 31.5432 26.6661 31.3178 26.6661Z" fill="#46B651"/>
<path d="M36.1023 26.293H36.5767L34.6667 31H34.1953L34.7163 29.671L33.4512 26.293H33.9287L34.9829 29.0753L36.1023 26.293Z" fill="#46B651"/>
<path d="M38.614 27.6056H41.6434C41.6227 27.8041 41.5969 27.9634 41.5659 28.0835C41.5369 28.2035 41.4935 28.3257 41.4357 28.4501C41.3385 28.6596 41.2145 28.8516 41.0636 29.0262C40.9147 29.2008 40.7463 29.3502 40.5581 29.4746C40.3721 29.5968 40.1705 29.6918 39.9535 29.7594C39.7364 29.8249 39.5142 29.8576 39.2868 29.8576C38.9685 29.8576 38.6636 29.7943 38.3721 29.6678C38.0827 29.5412 37.8264 29.3644 37.6031 29.1375C37.3819 28.9105 37.2093 28.6498 37.0853 28.3552C36.9612 28.0584 36.8992 27.7485 36.8992 27.4255C36.8992 26.9847 37.0057 26.5788 37.2186 26.2079C37.4315 25.8347 37.7209 25.5401 38.0868 25.3241C38.4527 25.108 38.8506 25 39.2806 25C39.7747 25 40.2129 25.1309 40.5953 25.3928C40.8186 25.5477 41.0181 25.743 41.1938 25.9787C41.262 26.0747 41.323 26.1904 41.3767 26.3257H40.8682C40.7566 26.1489 40.6408 26.0082 40.5209 25.9034C40.3514 25.7594 40.1592 25.6481 39.9442 25.5696C39.7313 25.4888 39.5101 25.4484 39.2806 25.4484C38.9313 25.4484 38.6077 25.5368 38.3101 25.7136C38.0124 25.8903 37.7767 26.1304 37.6031 26.4337C37.4315 26.737 37.3457 27.0676 37.3457 27.4255C37.3457 27.7834 37.4326 28.1151 37.6062 28.4206C37.7819 28.7239 38.0196 28.9651 38.3194 29.144C38.6171 29.3208 38.9416 29.4092 39.293 29.4092C39.5742 29.4092 39.8439 29.3459 40.1023 29.2193C40.3607 29.0927 40.5798 28.9193 40.7597 28.6989C40.8424 28.6007 40.9065 28.509 40.9519 28.4239C40.9974 28.3366 41.0501 28.2068 41.1101 28.0344H38.614V27.6056Z" fill="#46B651"/>
<path d="M45.6341 26.293V29.7758H45.2V29.1211C45.1194 29.2673 45.0284 29.3906 44.9271 29.491C44.6563 29.7354 44.3225 29.8576 43.9256 29.8576C43.661 29.8576 43.3922 29.7889 43.1194 29.6514C42.8465 29.5117 42.6305 29.335 42.4713 29.1211C42.3721 28.9836 42.2925 28.8178 42.2326 28.6236C42.1747 28.4272 42.1457 28.2308 42.1457 28.0344C42.1457 27.707 42.2243 27.4037 42.3814 27.1244C42.5406 26.8451 42.7566 26.6247 43.0295 26.4632C43.3003 26.2995 43.5948 26.2177 43.9132 26.2177C44.1116 26.2177 44.2987 26.2504 44.4744 26.3159C44.6522 26.3813 44.8052 26.4763 44.9333 26.6007C45.0326 26.6923 45.1214 26.8112 45.2 26.9574V26.2897L45.6341 26.293ZM43.938 26.6661C43.6899 26.6661 43.4625 26.7283 43.2558 26.8527C43.0491 26.9749 42.8868 27.1418 42.769 27.3535C42.6512 27.5652 42.5922 27.7965 42.5922 28.0475C42.5922 28.2919 42.6522 28.5188 42.7721 28.7283C42.892 28.9356 43.0532 29.1015 43.2558 29.2259C43.4605 29.3481 43.6817 29.4092 43.9194 29.4092C44.1468 29.4092 44.3587 29.3481 44.555 29.2259C44.7535 29.1015 44.9106 28.9356 45.0264 28.7283C45.1421 28.5188 45.2 28.2919 45.2 28.0475C45.2 27.8031 45.1432 27.5739 45.0295 27.3601C44.9158 27.1462 44.7618 26.9771 44.5674 26.8527C44.3731 26.7283 44.1633 26.6661 43.938 26.6661Z" fill="#46B651"/>
<path d="M46.124 28.7512H46.5674C46.5757 28.9476 46.6346 29.1069 46.7442 29.2291C46.8558 29.3492 46.9985 29.4092 47.1721 29.4092C47.3375 29.4092 47.4749 29.3546 47.5845 29.2455C47.6941 29.1342 47.7488 28.9945 47.7488 28.8265C47.7488 28.6454 47.6858 28.4981 47.5597 28.3846C47.4646 28.2995 47.3147 28.2253 47.1101 28.162C46.9034 28.0966 46.7525 28.0344 46.6574 27.9755C46.3804 27.7987 46.2419 27.5368 46.2419 27.1899C46.2419 26.9193 46.3349 26.689 46.5209 26.4992C46.7028 26.3115 46.9261 26.2177 47.1907 26.2177C47.4491 26.2177 47.663 26.305 47.8326 26.4795C48.0041 26.6541 48.0982 26.8822 48.1147 27.1637H47.662C47.6558 27.0087 47.6072 26.8876 47.5163 26.8003C47.4274 26.7109 47.3085 26.6661 47.1597 26.6661C47.0253 26.6661 46.9127 26.7141 46.8217 26.8101C46.7328 26.9062 46.6884 27.024 46.6884 27.1637C46.6884 27.3077 46.7369 27.4288 46.8341 27.527C46.8961 27.575 46.9478 27.6088 46.9891 27.6285C47.0326 27.6481 47.1276 27.683 47.2744 27.7332C47.4956 27.8096 47.6755 27.8936 47.814 27.9853C47.9483 28.0769 48.0455 28.1849 48.1054 28.3093C48.1654 28.4315 48.1953 28.5788 48.1953 28.7512C48.1953 29.0676 48.0961 29.3317 47.8977 29.5434C47.6992 29.7529 47.4491 29.8576 47.1473 29.8576C46.953 29.8576 46.7773 29.8107 46.6202 29.7169C46.463 29.623 46.3411 29.4921 46.2543 29.3241C46.1674 29.156 46.124 28.9651 46.124 28.7512Z" fill="#46B651"/>
<path d="M53.7705 26.293V29.7758H53.3364V29.1211C53.2558 29.2673 53.1649 29.3906 53.0636 29.491C52.7928 29.7354 52.4589 29.8576 52.062 29.8576C51.7974 29.8576 51.5287 29.7889 51.2558 29.6514C50.9829 29.5117 50.7669 29.335 50.6077 29.1211C50.5085 28.9836 50.4289 28.8178 50.369 28.6236C50.3111 28.4272 50.2822 28.2308 50.2822 28.0344C50.2822 27.707 50.3607 27.4037 50.5178 27.1244C50.677 26.8451 50.893 26.6247 51.1659 26.4632C51.4367 26.2995 51.7313 26.2177 52.0496 26.2177C52.2481 26.2177 52.4351 26.2504 52.6109 26.3159C52.7886 26.3813 52.9416 26.4763 53.0698 26.6007C53.169 26.6923 53.2579 26.8112 53.3364 26.9574V26.2897L53.7705 26.293ZM52.0744 26.6661C51.8264 26.6661 51.599 26.7283 51.3922 26.8527C51.1855 26.9749 51.0233 27.1418 50.9054 27.3535C50.7876 27.5652 50.7287 27.7965 50.7287 28.0475C50.7287 28.2919 50.7886 28.5188 50.9085 28.7283C51.0284 28.9356 51.1897 29.1015 51.3922 29.2259C51.5969 29.3481 51.8181 29.4092 52.0558 29.4092C52.2832 29.4092 52.4951 29.3481 52.6915 29.2259C52.8899 29.1015 53.047 28.9356 53.1628 28.7283C53.2786 28.5188 53.3364 28.2919 53.3364 28.0475C53.3364 27.8031 53.2796 27.5739 53.1659 27.3601C53.0522 27.1462 52.8982 26.9771 52.7039 26.8527C52.5096 26.7283 52.2997 26.6661 52.0744 26.6661Z" fill="#46B651"/>
<path d="M54.5333 29.7791V26.2897H54.9519V26.8363C55.0367 26.6967 55.1152 26.5908 55.1876 26.5188C55.4026 26.3181 55.6951 26.2177 56.0651 26.2177C56.5385 26.2177 56.9003 26.3835 57.1504 26.7152C57.2496 26.8462 57.324 26.9935 57.3736 27.1571C57.4274 27.3492 57.4543 27.611 57.4543 27.9427V29.7791H57.0015V27.9427C57.0015 27.7878 56.9912 27.635 56.9705 27.4845C56.9313 27.227 56.8269 27.0262 56.6574 26.8822C56.4879 26.7381 56.2729 26.6661 56.0124 26.6661C55.8388 26.6661 55.6724 26.7065 55.5132 26.7872C55.3602 26.8636 55.2393 26.9673 55.1504 27.0982C55.0822 27.192 55.0357 27.2979 55.0109 27.4157C54.9881 27.5336 54.9767 27.7092 54.9767 27.9427V29.7791H54.5333Z" fill="#46B651"/>
<path d="M61.5845 25.072V29.7758H61.1566V29.1408C61.047 29.2913 60.9519 29.4048 60.8713 29.4812C60.7928 29.5576 60.6977 29.6252 60.586 29.6841C60.3649 29.7998 60.1199 29.8576 59.8512 29.8576C59.3158 29.8576 58.8475 29.6187 58.4465 29.1408C58.2047 28.8592 58.0837 28.4883 58.0837 28.0278C58.0837 27.7027 58.1623 27.4004 58.3194 27.1211C58.4765 26.8418 58.6904 26.6214 58.9612 26.4599C59.232 26.2984 59.5287 26.2177 59.8512 26.2177C60.2357 26.2177 60.5695 26.3366 60.8527 26.5745C60.9354 26.6378 61.0305 26.7469 61.138 26.9018V25.072H61.5845ZM61.1442 28.0409C61.1442 27.79 61.0863 27.5586 60.9705 27.347C60.8548 27.1353 60.6966 26.9694 60.4961 26.8494C60.2935 26.7272 60.0713 26.6661 59.8295 26.6661C59.5959 26.6661 59.3788 26.7272 59.1783 26.8494C58.9778 26.9716 58.8196 27.1375 58.7039 27.347C58.5881 27.5543 58.5302 27.7812 58.5302 28.0278C58.5302 28.2744 58.5881 28.5046 58.7039 28.7185C58.8217 28.9302 58.9819 29.0971 59.1845 29.2193C59.385 29.3459 59.6021 29.4092 59.8357 29.4092C60.0693 29.4092 60.2863 29.3481 60.4868 29.2259C60.6873 29.1015 60.8465 28.9345 60.9643 28.725C61.0842 28.5134 61.1442 28.2853 61.1442 28.0409Z" fill="#46B651"/>
<path d="M63.7736 28.4566H64.2512C64.2698 28.7447 64.3618 28.976 64.5271 29.1506C64.6925 29.323 64.9013 29.4092 65.1535 29.4092C65.3189 29.4092 65.4718 29.3688 65.6124 29.2881C65.753 29.2051 65.8636 29.0938 65.9442 28.9542C66.0269 28.8123 66.0682 28.6585 66.0682 28.4926C66.0682 28.2199 65.9649 27.9918 65.7581 27.8085C65.6238 27.6885 65.3953 27.5848 65.0729 27.4975C65.0274 27.4866 64.9902 27.4779 64.9612 27.4714C64.9344 27.4626 64.9158 27.4561 64.9054 27.4517C64.7525 27.4103 64.6171 27.3568 64.4992 27.2913C64.3152 27.1909 64.1716 27.0502 64.0682 26.8691C63.9649 26.6858 63.9132 26.4828 63.9132 26.2602C63.9132 26.0224 63.968 25.8074 64.0775 25.6154C64.1871 25.4233 64.337 25.2728 64.5271 25.1637C64.7173 25.0546 64.9302 25 65.1659 25C65.3974 25 65.6052 25.0524 65.7891 25.1571C65.9752 25.2619 66.122 25.4113 66.2295 25.6056C66.337 25.7976 66.3959 26.0202 66.4062 26.2733H65.9411C65.9142 26.0136 65.8295 25.8118 65.6868 25.6678C65.5442 25.5215 65.3602 25.4484 65.1349 25.4484C64.9902 25.4484 64.8579 25.4855 64.738 25.5597C64.6202 25.6318 64.5271 25.7321 64.4589 25.8609C64.3928 25.9875 64.3597 26.1271 64.3597 26.2799C64.3597 26.4959 64.432 26.6694 64.5767 26.8003C64.6987 26.9116 64.9375 27.0175 65.293 27.1178C65.5121 27.1768 65.6765 27.2324 65.786 27.2848C65.8977 27.3372 66.0021 27.4081 66.0992 27.4975C66.3742 27.7616 66.5116 28.09 66.5116 28.4828C66.5116 28.7338 66.4506 28.9651 66.3287 29.1768C66.2067 29.3863 66.0403 29.5521 65.8295 29.6743C65.6207 29.7965 65.3933 29.8576 65.1473 29.8576C64.9571 29.8576 64.7731 29.8205 64.5954 29.7463C64.4196 29.6721 64.2687 29.5685 64.1426 29.4354C64.0248 29.311 63.9338 29.1637 63.8698 28.9935C63.816 28.8603 63.784 28.6814 63.7736 28.4566Z" fill="#46B651"/>
<path d="M69.8171 28.7578H70.3132C70.2326 28.9193 70.1643 29.0415 70.1085 29.1244C70.0548 29.2051 69.9876 29.2848 69.907 29.3633C69.5742 29.6929 69.1721 29.8576 68.7008 29.8576C68.37 29.8576 68.0672 29.778 67.7923 29.6187C67.5173 29.4572 67.3003 29.2379 67.1411 28.9607C66.9819 28.6814 66.9023 28.3748 66.9023 28.0409C66.9023 27.7092 66.9819 27.4037 67.1411 27.1244C67.3003 26.8451 67.5173 26.6247 67.7923 26.4632C68.0672 26.2995 68.3659 26.2177 68.6884 26.2177C69.1928 26.2177 69.6217 26.4075 69.9752 26.7872C70.0992 26.9225 70.214 27.1102 70.3194 27.3502H69.8171C69.7199 27.2019 69.6227 27.084 69.5256 26.9967C69.2796 26.7763 68.9985 26.6661 68.6822 26.6661C68.4382 26.6661 68.214 26.7272 68.0093 26.8494C67.8046 26.9694 67.6434 27.1342 67.5256 27.3437C67.4078 27.5532 67.3488 27.7812 67.3488 28.0278C67.3488 28.2853 67.4067 28.5199 67.5225 28.7316C67.6382 28.9411 67.7984 29.1069 68.0031 29.2291C68.2057 29.3492 68.43 29.4092 68.676 29.4092C68.8972 29.4092 69.1018 29.3601 69.2899 29.2619C69.3953 29.2051 69.4842 29.1429 69.5566 29.0753C69.6289 29.0055 69.7158 28.8996 69.8171 28.7578Z" fill="#46B651"/>
<path d="M70.9364 29.7791V25.072H71.3798V26.7938C71.4997 26.593 71.6455 26.4468 71.8171 26.3552C71.9907 26.2635 72.2077 26.2177 72.4682 26.2177C72.9416 26.2177 73.3034 26.3835 73.5535 26.7152C73.6527 26.8462 73.7271 26.9935 73.7767 27.1571C73.8305 27.3492 73.8574 27.611 73.8574 27.9427V29.7791H73.4046V27.9427C73.4046 27.7878 73.3943 27.635 73.3736 27.4845C73.3344 27.227 73.23 27.0262 73.0605 26.8822C72.891 26.7381 72.676 26.6661 72.4155 26.6661C72.2419 26.6661 72.0755 26.7065 71.9163 26.7872C71.7633 26.8636 71.6424 26.9673 71.5535 27.0982C71.4853 27.192 71.4388 27.2979 71.414 27.4157C71.3912 27.5336 71.3798 27.7092 71.3798 27.9427V29.7791H70.9364Z" fill="#46B651"/>
<path d="M74.614 29.7791V26.2897H75.0326V26.8363C75.1173 26.6967 75.1959 26.5908 75.2682 26.5188C75.4832 26.3181 75.7757 26.2177 76.1457 26.2177C76.6191 26.2177 76.9809 26.3835 77.231 26.7152C77.3302 26.8462 77.4046 26.9935 77.4543 27.1571C77.508 27.3492 77.5349 27.611 77.5349 27.9427V29.7791H77.0822V27.9427C77.0822 27.7878 77.0718 27.635 77.0512 27.4845C77.0119 27.227 76.9075 27.0262 76.738 26.8822C76.5685 26.7381 76.3535 26.6661 76.093 26.6661C75.9194 26.6661 75.753 26.7065 75.5938 26.7872C75.4408 26.8636 75.3199 26.9673 75.231 27.0982C75.1628 27.192 75.1163 27.2979 75.0915 27.4157C75.0687 27.5336 75.0574 27.7092 75.0574 27.9427V29.7791H74.614Z" fill="#46B651"/>
<path d="M81.5876 28.1751H78.5984C78.6212 28.3628 78.6563 28.5101 78.7039 28.617C78.768 28.7698 78.861 28.9073 78.9829 29.0295C79.1049 29.1495 79.2444 29.2433 79.4016 29.311C79.5587 29.3764 79.722 29.4092 79.8915 29.4092C80.2512 29.4092 80.5602 29.2793 80.8186 29.0196C80.9158 28.9193 80.9985 28.7949 81.0667 28.6465H81.538C81.4553 28.8472 81.3809 28.9978 81.3147 29.0982C81.2486 29.1986 81.1556 29.3022 81.0357 29.4092C80.8806 29.551 80.7008 29.6612 80.4961 29.7398C80.2915 29.8183 80.0858 29.8576 79.8791 29.8576C79.5669 29.8576 79.2796 29.778 79.0171 29.6187C78.7545 29.4572 78.5457 29.2368 78.3907 28.9574C78.2377 28.6781 78.1612 28.3726 78.1612 28.0409C78.1612 27.7114 78.2377 27.407 78.3907 27.1277C78.5437 26.8483 78.7514 26.6268 79.014 26.4632C79.2785 26.2995 79.5649 26.2177 79.8729 26.2177C80.1333 26.2177 80.3804 26.2766 80.614 26.3944C80.8475 26.5123 81.047 26.6792 81.2124 26.8953C81.3695 27.1004 81.478 27.335 81.538 27.599C81.5587 27.6972 81.5752 27.8893 81.5876 28.1751ZM78.614 27.7463H81.1318C81.0987 27.5477 81.0212 27.3655 80.8992 27.1997C80.7793 27.0338 80.6284 26.904 80.4465 26.8101C80.2667 26.7141 80.0775 26.6661 79.8791 26.6661C79.6765 26.6661 79.4873 26.7109 79.3116 26.8003C79.138 26.8876 78.9902 27.0142 78.8682 27.18C78.7463 27.3437 78.6615 27.5325 78.614 27.7463Z" fill="#46B651"/>
<path d="M82.2109 29.7791V26.293H82.6543V29.7791H82.2109ZM82.2109 25.8773V25.072H82.6543V25.8773H82.2109Z" fill="#46B651"/>
<path d="M86.7938 25.072V29.7758H86.3659V29.1408C86.2563 29.2913 86.1612 29.4048 86.0806 29.4812C86.0021 29.5576 85.907 29.6252 85.7953 29.6841C85.5742 29.7998 85.3292 29.8576 85.0605 29.8576C84.5251 29.8576 84.0568 29.6187 83.6558 29.1408C83.414 28.8592 83.293 28.4883 83.293 28.0278C83.293 27.7027 83.3716 27.4004 83.5287 27.1211C83.6858 26.8418 83.8997 26.6214 84.1705 26.4599C84.4413 26.2984 84.738 26.2177 85.0605 26.2177C85.445 26.2177 85.7788 26.3366 86.062 26.5745C86.1447 26.6378 86.2398 26.7469 86.3473 26.9018V25.072H86.7938ZM86.3535 28.0409C86.3535 27.79 86.2956 27.5586 86.1798 27.347C86.0641 27.1353 85.9059 26.9694 85.7054 26.8494C85.5028 26.7272 85.2806 26.6661 85.0388 26.6661C84.8052 26.6661 84.5881 26.7272 84.3876 26.8494C84.1871 26.9716 84.0289 27.1375 83.9132 27.347C83.7974 27.5543 83.7395 27.7812 83.7395 28.0278C83.7395 28.2744 83.7974 28.5046 83.9132 28.7185C84.031 28.9302 84.1912 29.0971 84.3938 29.2193C84.5943 29.3459 84.8114 29.4092 85.045 29.4092C85.2785 29.4092 85.4956 29.3481 85.6961 29.2259C85.8966 29.1015 86.0558 28.9345 86.1736 28.725C86.2935 28.5134 86.3535 28.2853 86.3535 28.0409Z" fill="#46B651"/>
<path d="M90.8527 28.1751H87.8636C87.8863 28.3628 87.9214 28.5101 87.969 28.617C88.0331 28.7698 88.1261 28.9073 88.2481 29.0295C88.37 29.1495 88.5096 29.2433 88.6667 29.311C88.8238 29.3764 88.9871 29.4092 89.1566 29.4092C89.5163 29.4092 89.8253 29.2793 90.0837 29.0196C90.1809 28.9193 90.2636 28.7949 90.3318 28.6465H90.8031C90.7204 28.8472 90.646 28.9978 90.5798 29.0982C90.5137 29.1986 90.4207 29.3022 90.3008 29.4092C90.1457 29.551 89.9659 29.6612 89.7612 29.7398C89.5566 29.8183 89.3509 29.8576 89.1442 29.8576C88.832 29.8576 88.5447 29.778 88.2822 29.6187C88.0196 29.4572 87.8109 29.2368 87.6558 28.9574C87.5028 28.6781 87.4264 28.3726 87.4264 28.0409C87.4264 27.7114 87.5028 27.407 87.6558 27.1277C87.8088 26.8483 88.0165 26.6268 88.2791 26.4632C88.5437 26.2995 88.83 26.2177 89.138 26.2177C89.3985 26.2177 89.6455 26.2766 89.8791 26.3944C90.1127 26.5123 90.3121 26.6792 90.4775 26.8953C90.6346 27.1004 90.7431 27.335 90.8031 27.599C90.8238 27.6972 90.8403 27.8893 90.8527 28.1751ZM87.8791 27.7463H90.3969C90.3638 27.5477 90.2863 27.3655 90.1643 27.1997C90.0444 27.0338 89.8935 26.904 89.7116 26.8101C89.5318 26.7141 89.3426 26.6661 89.1442 26.6661C88.9416 26.6661 88.7525 26.7109 88.5767 26.8003C88.4031 26.8876 88.2553 27.0142 88.1333 27.18C88.0114 27.3437 87.9266 27.5325 87.8791 27.7463Z" fill="#46B651"/>
<path d="M91.476 29.7791V26.293H91.8946V26.7938C91.9566 26.6716 92.0186 26.5799 92.0806 26.5188C92.1571 26.4381 92.2481 26.3737 92.3535 26.3257C92.4713 26.2711 92.6388 26.2351 92.8558 26.2177V26.6825C92.6656 26.7043 92.5106 26.7512 92.3907 26.8232C92.215 26.9411 92.0858 27.0862 92.0031 27.2586C91.9473 27.3699 91.9194 27.5597 91.9194 27.8282V29.7791H91.476Z" fill="#46B651"/>
<path d="M95.0419 29.7791V25.072H97.4822V25.5008H95.4884V27.1506H97.414V27.5794H95.4884V29.3502H97.4822V29.7791H95.0419Z" fill="#46B651"/>
<path d="M98.2047 29.7791V25.072H98.6481V29.7791H98.2047Z" fill="#46B651"/>
<path d="M102.71 28.1751H99.7209C99.7437 28.3628 99.7788 28.5101 99.8264 28.617C99.8904 28.7698 99.9835 28.9073 100.105 29.0295C100.227 29.1495 100.367 29.2433 100.524 29.311C100.681 29.3764 100.844 29.4092 101.014 29.4092C101.374 29.4092 101.683 29.2793 101.941 29.0196C102.038 28.9193 102.121 28.7949 102.189 28.6465H102.66C102.578 28.8472 102.503 28.9978 102.437 29.0982C102.371 29.1986 102.278 29.3022 102.158 29.4092C102.003 29.551 101.823 29.6612 101.619 29.7398C101.414 29.8183 101.208 29.8576 101.002 29.8576C100.689 29.8576 100.402 29.778 100.14 29.6187C99.877 29.4572 99.6682 29.2368 99.5132 28.9574C99.3602 28.6781 99.2837 28.3726 99.2837 28.0409C99.2837 27.7114 99.3602 27.407 99.5132 27.1277C99.6662 26.8483 99.8739 26.6268 100.136 26.4632C100.401 26.2995 100.687 26.2177 100.995 26.2177C101.256 26.2177 101.503 26.2766 101.736 26.3944C101.97 26.5123 102.17 26.6792 102.335 26.8953C102.492 27.1004 102.601 27.335 102.66 27.599C102.681 27.6972 102.698 27.8893 102.71 28.1751ZM99.7364 27.7463H102.254C102.221 27.5477 102.144 27.3655 102.022 27.1997C101.902 27.0338 101.751 26.904 101.569 26.8101C101.389 26.7141 101.2 26.6661 101.002 26.6661C100.799 26.6661 100.61 26.7109 100.434 26.8003C100.26 26.8876 100.113 27.0142 99.9907 27.18C99.8687 27.3437 99.784 27.5325 99.7364 27.7463Z" fill="#46B651"/>
<path d="M106.121 28.7578H106.617C106.536 28.9193 106.468 29.0415 106.412 29.1244C106.359 29.2051 106.291 29.2848 106.211 29.3633C105.878 29.6929 105.476 29.8576 105.005 29.8576C104.674 29.8576 104.371 29.778 104.096 29.6187C103.821 29.4572 103.604 29.2379 103.445 28.9607C103.286 28.6814 103.206 28.3748 103.206 28.0409C103.206 27.7092 103.286 27.4037 103.445 27.1244C103.604 26.8451 103.821 26.6247 104.096 26.4632C104.371 26.2995 104.67 26.2177 104.992 26.2177C105.497 26.2177 105.926 26.4075 106.279 26.7872C106.403 26.9225 106.518 27.1102 106.623 27.3502H106.121C106.024 27.2019 105.927 27.084 105.829 26.9967C105.583 26.7763 105.302 26.6661 104.986 26.6661C104.742 26.6661 104.518 26.7272 104.313 26.8494C104.109 26.9694 103.947 27.1342 103.829 27.3437C103.712 27.5532 103.653 27.7812 103.653 28.0278C103.653 28.2853 103.711 28.5199 103.826 28.7316C103.942 28.9411 104.102 29.1069 104.307 29.2291C104.51 29.3492 104.734 29.4092 104.98 29.4092C105.201 29.4092 105.406 29.3601 105.594 29.2619C105.699 29.2051 105.788 29.1429 105.86 29.0753C105.933 29.0055 106.02 28.8996 106.121 28.7578Z" fill="#46B651"/>
<path d="M107.622 29.7791V26.7218H106.93V26.293H107.622V25.072H108.065V26.293H108.834V26.7218H108.065V29.7791H107.622Z" fill="#46B651"/>
<path d="M109.287 29.7791V26.293H109.705V26.7938C109.767 26.6716 109.829 26.5799 109.891 26.5188C109.968 26.4381 110.059 26.3737 110.164 26.3257C110.282 26.2711 110.45 26.2351 110.667 26.2177V26.6825C110.476 26.7043 110.321 26.7512 110.202 26.8232C110.026 26.9411 109.897 27.0862 109.814 27.2586C109.758 27.3699 109.73 27.5597 109.73 27.8282V29.7791H109.287Z" fill="#46B651"/>
<path d="M111.104 29.7791V26.293H111.547V29.7791H111.104ZM111.104 25.8773V25.072H111.547V25.8773H111.104Z" fill="#46B651"/>
<path d="M115.101 28.7578H115.597C115.516 28.9193 115.448 29.0415 115.392 29.1244C115.339 29.2051 115.271 29.2848 115.191 29.3633C114.858 29.6929 114.456 29.8576 113.984 29.8576C113.654 29.8576 113.351 29.778 113.076 29.6187C112.801 29.4572 112.584 29.2379 112.425 28.9607C112.266 28.6814 112.186 28.3748 112.186 28.0409C112.186 27.7092 112.266 27.4037 112.425 27.1244C112.584 26.8451 112.801 26.6247 113.076 26.4632C113.351 26.2995 113.65 26.2177 113.972 26.2177C114.476 26.2177 114.905 26.4075 115.259 26.7872C115.383 26.9225 115.498 27.1102 115.603 27.3502H115.101C115.004 27.2019 114.906 27.084 114.809 26.9967C114.563 26.7763 114.282 26.6661 113.966 26.6661C113.722 26.6661 113.498 26.7272 113.293 26.8494C113.088 26.9694 112.927 27.1342 112.809 27.3437C112.691 27.5532 112.633 27.7812 112.633 28.0278C112.633 28.2853 112.69 28.5199 112.806 28.7316C112.922 28.9411 113.082 29.1069 113.287 29.2291C113.489 29.3492 113.714 29.4092 113.96 29.4092C114.181 29.4092 114.386 29.3601 114.574 29.2619C114.679 29.2051 114.768 29.1429 114.84 29.0753C114.913 29.0055 114.999 28.8996 115.101 28.7578Z" fill="#46B651"/>
<path d="M119.966 25.072V28.4501C119.966 28.4501 119.965 28.461 119.963 28.4763C119.961 28.4915 119.96 28.5079 119.96 28.5254C119.96 28.5472 119.958 28.569 119.953 28.5908C119.945 28.8047 119.926 28.9662 119.895 29.0753C119.864 29.1822 119.807 29.2891 119.724 29.3961C119.61 29.5423 119.471 29.6558 119.305 29.7365C119.14 29.8172 118.962 29.8576 118.772 29.8576C118.551 29.8576 118.353 29.8085 118.18 29.7103C118.004 29.6165 117.865 29.4801 117.761 29.3011C117.658 29.12 117.597 28.9083 117.578 28.6661H118.022C118.047 28.8953 118.128 29.0764 118.267 29.2095C118.407 29.3426 118.586 29.4092 118.803 29.4092C118.954 29.4092 119.09 29.3666 119.212 29.2815C119.332 29.1942 119.416 29.0807 119.464 28.9411C119.497 28.8232 119.513 28.6148 119.513 28.3159V25.072H119.966Z" fill="#46B651"/>
<path d="M122.372 26.2177C122.686 26.2177 122.977 26.2995 123.243 26.4632C123.512 26.6268 123.725 26.8483 123.882 27.1277C124.039 27.4048 124.118 27.7049 124.118 28.0278C124.118 28.3552 124.04 28.6596 123.885 28.9411C123.73 29.2226 123.521 29.4463 123.259 29.6121C122.996 29.7758 122.711 29.8576 122.403 29.8576C122.097 29.8576 121.811 29.7758 121.544 29.6121C121.278 29.4528 121.066 29.2346 120.909 28.9574C120.753 28.6781 120.676 28.377 120.676 28.054C120.676 27.7289 120.753 27.4255 120.909 27.144C121.062 26.8603 121.268 26.6356 121.529 26.4697C121.789 26.3017 122.07 26.2177 122.372 26.2177ZM122.403 26.6661C122.161 26.6748 121.943 26.7414 121.749 26.8658C121.552 26.988 121.398 27.1538 121.287 27.3633C121.177 27.5728 121.122 27.8031 121.122 28.054C121.122 28.3006 121.179 28.5276 121.293 28.7349C121.409 28.9444 121.565 29.1091 121.761 29.2291C121.96 29.3492 122.176 29.4092 122.409 29.4092C122.643 29.4092 122.857 29.3481 123.051 29.2259C123.243 29.1015 123.394 28.9324 123.504 28.7185C123.616 28.5046 123.671 28.2679 123.671 28.0082C123.671 27.7725 123.614 27.551 123.501 27.3437C123.389 27.1364 123.237 26.9716 123.045 26.8494C122.853 26.7272 122.647 26.6661 122.428 26.6661H122.403Z" fill="#46B651"/>
<path d="M124.753 29.7791V26.293H125.197V29.7791H124.753ZM124.753 25.8773V25.072H125.197V25.8773H124.753Z" fill="#46B651"/>
<path d="M125.963 29.7791V26.2897H126.381V26.8363C126.466 26.6967 126.545 26.5908 126.617 26.5188C126.832 26.3181 127.125 26.2177 127.495 26.2177C127.968 26.2177 128.33 26.3835 128.58 26.7152C128.679 26.8462 128.753 26.9935 128.803 27.1571C128.857 27.3492 128.884 27.611 128.884 27.9427V29.7791H128.431V27.9427C128.431 27.7878 128.421 27.635 128.4 27.4845C128.361 27.227 128.256 27.0262 128.087 26.8822C127.917 26.7381 127.702 26.6661 127.442 26.6661C127.268 26.6661 127.102 26.7065 126.943 26.7872C126.79 26.8636 126.669 26.9673 126.58 27.0982C126.512 27.192 126.465 27.2979 126.44 27.4157C126.418 27.5336 126.406 27.7092 126.406 27.9427V29.7791H125.963Z" fill="#46B651"/>
<path d="M130.022 29.7791V26.7218H129.33V26.293H130.022V25.072H130.465V26.293H131.234V26.7218H130.465V29.7791H130.022Z" fill="#46B651"/>
<path d="M134.881 29.7791L133.036 25.072H133.526L135.088 29.1964L136.664 25.072H137.153L135.305 29.7791H134.881Z" fill="#46B651"/>
<path d="M140.893 28.1751H137.904C137.927 28.3628 137.962 28.5101 138.009 28.617C138.073 28.7698 138.166 28.9073 138.288 29.0295C138.41 29.1495 138.55 29.2433 138.707 29.311C138.864 29.3764 139.027 29.4092 139.197 29.4092C139.557 29.4092 139.866 29.2793 140.124 29.0196C140.221 28.9193 140.304 28.7949 140.372 28.6465H140.843C140.761 28.8472 140.686 28.9978 140.62 29.0982C140.554 29.1986 140.461 29.3022 140.341 29.4092C140.186 29.551 140.006 29.6612 139.802 29.7398C139.597 29.8183 139.391 29.8576 139.184 29.8576C138.872 29.8576 138.585 29.778 138.322 29.6187C138.06 29.4572 137.851 29.2368 137.696 28.9574C137.543 28.6781 137.467 28.3726 137.467 28.0409C137.467 27.7114 137.543 27.407 137.696 27.1277C137.849 26.8483 138.057 26.6268 138.319 26.4632C138.584 26.2995 138.87 26.2177 139.178 26.2177C139.439 26.2177 139.686 26.2766 139.919 26.3944C140.153 26.5123 140.352 26.6792 140.518 26.8953C140.675 27.1004 140.783 27.335 140.843 27.599C140.864 27.6972 140.881 27.8893 140.893 28.1751ZM137.919 27.7463H140.437C140.404 27.5477 140.327 27.3655 140.205 27.1997C140.085 27.0338 139.934 26.904 139.752 26.8101C139.572 26.7141 139.383 26.6661 139.184 26.6661C138.982 26.6661 138.793 26.7109 138.617 26.8003C138.443 26.8876 138.296 27.0142 138.174 27.18C138.052 27.3437 137.967 27.5325 137.919 27.7463Z" fill="#46B651"/>
<path d="M141.516 29.7791V26.2897H141.935V26.8363C142.02 26.6967 142.098 26.5908 142.171 26.5188C142.386 26.3181 142.678 26.2177 143.048 26.2177C143.521 26.2177 143.883 26.3835 144.133 26.7152C144.233 26.8462 144.307 26.9935 144.357 27.1571C144.41 27.3492 144.437 27.611 144.437 27.9427V29.7791H143.984V27.9427C143.984 27.7878 143.974 27.635 143.953 27.4845C143.914 27.227 143.81 27.0262 143.64 26.8822C143.471 26.7381 143.256 26.6661 142.995 26.6661C142.822 26.6661 142.655 26.7065 142.496 26.7872C142.343 26.8636 142.222 26.9673 142.133 27.0982C142.065 27.192 142.019 27.2979 141.994 27.4157C141.971 27.5336 141.96 27.7092 141.96 27.9427V29.7791H141.516Z" fill="#46B651"/>
<path d="M145.575 29.7791V26.7218H144.884V26.293H145.575V25.072H146.019V26.293H146.788V26.7218H146.019V29.7791H145.575Z" fill="#46B651"/>
<path d="M150.149 26.293V29.7758H149.73V29.2357C149.648 29.3732 149.567 29.4779 149.488 29.5499C149.286 29.7507 148.996 29.8511 148.62 29.8511C148.143 29.8511 147.78 29.6885 147.532 29.3633C147.433 29.2302 147.358 29.0829 147.309 28.9214C147.253 28.7294 147.225 28.4654 147.225 28.1293V26.293H147.678V28.1293C147.678 28.2799 147.689 28.4337 147.712 28.5908C147.738 28.7567 147.796 28.9007 147.885 29.0229C147.974 29.1451 148.087 29.2379 148.223 29.3011C148.362 29.3688 148.515 29.4026 148.682 29.4026C148.854 29.4026 149.015 29.3644 149.166 29.2881C149.319 29.2117 149.441 29.1069 149.532 28.9738C149.6 28.88 149.645 28.7752 149.668 28.6596C149.691 28.5417 149.702 28.365 149.702 28.1293V26.293H150.149Z" fill="#46B651"/>
<path d="M150.912 29.7791V26.293H151.33V26.7938C151.392 26.6716 151.454 26.5799 151.516 26.5188C151.593 26.4381 151.684 26.3737 151.789 26.3257C151.907 26.2711 152.074 26.2351 152.291 26.2177V26.6825C152.101 26.7043 151.946 26.7512 151.826 26.8232C151.651 26.9411 151.521 27.0862 151.439 27.2586C151.383 27.3699 151.355 27.5597 151.355 27.8282V29.7791H150.912Z" fill="#46B651"/>
<path d="M156.025 28.1751H153.036C153.058 28.3628 153.094 28.5101 153.141 28.617C153.205 28.7698 153.298 28.9073 153.42 29.0295C153.542 29.1495 153.682 29.2433 153.839 29.311C153.996 29.3764 154.159 29.4092 154.329 29.4092C154.688 29.4092 154.997 29.2793 155.256 29.0196C155.353 28.9193 155.436 28.7949 155.504 28.6465H155.975C155.893 28.8472 155.818 28.9978 155.752 29.0982C155.686 29.1986 155.593 29.3022 155.473 29.4092C155.318 29.551 155.138 29.6612 154.933 29.7398C154.729 29.8183 154.523 29.8576 154.316 29.8576C154.004 29.8576 153.717 29.778 153.454 29.6187C153.192 29.4572 152.983 29.2368 152.828 28.9574C152.675 28.6781 152.598 28.3726 152.598 28.0409C152.598 27.7114 152.675 27.407 152.828 27.1277C152.981 26.8483 153.189 26.6268 153.451 26.4632C153.716 26.2995 154.002 26.2177 154.31 26.2177C154.571 26.2177 154.818 26.2766 155.051 26.3944C155.285 26.5123 155.484 26.6792 155.65 26.8953C155.807 27.1004 155.915 27.335 155.975 27.599C155.996 27.6972 156.012 27.8893 156.025 28.1751ZM153.051 27.7463H155.569C155.536 27.5477 155.458 27.3655 155.336 27.1997C155.217 27.0338 155.066 26.904 154.884 26.8101C154.704 26.7141 154.515 26.6661 154.316 26.6661C154.114 26.6661 153.925 26.7109 153.749 26.8003C153.575 26.8876 153.427 27.0142 153.305 27.18C153.183 27.3437 153.099 27.5325 153.051 27.7463Z" fill="#46B651"/>
<path d="M158.397 29.7791V25.072H159.569C159.871 25.072 160.11 25.0906 160.285 25.1277C160.463 25.1669 160.622 25.2335 160.763 25.3273C160.885 25.4081 160.99 25.5085 161.079 25.6285C161.168 25.7463 161.235 25.8773 161.281 26.0213C161.328 26.1653 161.352 26.3181 161.352 26.4795C161.352 26.7065 161.309 26.9138 161.222 27.1015C161.135 27.2891 161.009 27.4463 160.843 27.5728C160.748 27.647 160.646 27.707 160.536 27.7529C160.427 27.7965 160.303 27.8282 160.164 27.8478C160.028 27.8696 159.867 27.8805 159.681 27.8805H158.843V29.7791H158.397ZM158.843 27.4517H159.612C159.84 27.4517 160.021 27.4386 160.155 27.4124C160.291 27.3841 160.411 27.335 160.515 27.2651C160.639 27.1822 160.734 27.072 160.8 26.9345C160.866 26.7949 160.899 26.641 160.899 26.473C160.899 26.2744 160.851 26.0987 160.753 25.946C160.658 25.7932 160.523 25.6787 160.347 25.6023C160.186 25.5303 159.956 25.4943 159.656 25.4943H159.569L159.491 25.5008H158.843V27.4517Z" fill="#46B651"/>
<path d="M165.256 26.293V29.7758H164.822V29.1211C164.741 29.2673 164.65 29.3906 164.549 29.491C164.278 29.7354 163.944 29.8576 163.547 29.8576C163.283 29.8576 163.014 29.7889 162.741 29.6514C162.468 29.5117 162.252 29.335 162.093 29.1211C161.994 28.9836 161.914 28.8178 161.854 28.6236C161.796 28.4272 161.767 28.2308 161.767 28.0344C161.767 27.707 161.846 27.4037 162.003 27.1244C162.162 26.8451 162.378 26.6247 162.651 26.4632C162.922 26.2995 163.217 26.2177 163.535 26.2177C163.733 26.2177 163.92 26.2504 164.096 26.3159C164.274 26.3813 164.427 26.4763 164.555 26.6007C164.654 26.6923 164.743 26.8112 164.822 26.9574V26.2897L165.256 26.293ZM163.56 26.6661C163.312 26.6661 163.084 26.7283 162.878 26.8527C162.671 26.9749 162.509 27.1418 162.391 27.3535C162.273 27.5652 162.214 27.7965 162.214 28.0475C162.214 28.2919 162.274 28.5188 162.394 28.7283C162.514 28.9356 162.675 29.1015 162.878 29.2259C163.082 29.3481 163.303 29.4092 163.541 29.4092C163.768 29.4092 163.98 29.3481 164.177 29.2259C164.375 29.1015 164.532 28.9356 164.648 28.7283C164.764 28.5188 164.822 28.2919 164.822 28.0475C164.822 27.8031 164.765 27.5739 164.651 27.3601C164.537 27.1462 164.383 26.9771 164.189 26.8527C163.995 26.7283 163.785 26.6661 163.56 26.6661Z" fill="#46B651"/>
<path d="M166.019 29.7791V26.293H166.437V26.7938C166.499 26.6716 166.561 26.5799 166.623 26.5188C166.7 26.4381 166.791 26.3737 166.896 26.3257C167.014 26.2711 167.181 26.2351 167.398 26.2177V26.6825C167.208 26.7043 167.053 26.7512 166.933 26.8232C166.758 26.9411 166.628 27.0862 166.546 27.2586C166.49 27.3699 166.462 27.5597 166.462 27.8282V29.7791H166.019Z" fill="#46B651"/>
<path d="M168.217 29.7791V26.7218H167.526V26.293H168.217V25.072H168.66V26.293H169.429V26.7218H168.66V29.7791H168.217Z" fill="#46B651"/>
<path d="M169.882 29.7791V26.2897H170.301V26.8363C170.386 26.6967 170.464 26.5908 170.536 26.5188C170.751 26.3181 171.044 26.2177 171.414 26.2177C171.887 26.2177 172.249 26.3835 172.499 26.7152C172.598 26.8462 172.673 26.9935 172.722 27.1571C172.776 27.3492 172.803 27.611 172.803 27.9427V29.7791H172.35V27.9427C172.35 27.7878 172.34 27.635 172.319 27.4845C172.28 27.227 172.176 27.0262 172.006 26.8822C171.837 26.7381 171.622 26.6661 171.361 26.6661C171.188 26.6661 171.021 26.7065 170.862 26.7872C170.709 26.8636 170.588 26.9673 170.499 27.0982C170.431 27.192 170.384 27.2979 170.36 27.4157C170.337 27.5336 170.326 27.7092 170.326 27.9427V29.7791H169.882Z" fill="#46B651"/>
<path d="M176.856 28.1751H173.867C173.889 28.3628 173.925 28.5101 173.972 28.617C174.036 28.7698 174.129 28.9073 174.251 29.0295C174.373 29.1495 174.513 29.2433 174.67 29.311C174.827 29.3764 174.99 29.4092 175.16 29.4092C175.519 29.4092 175.828 29.2793 176.087 29.0196C176.184 28.9193 176.267 28.7949 176.335 28.6465H176.806C176.724 28.8472 176.649 28.9978 176.583 29.0982C176.517 29.1986 176.424 29.3022 176.304 29.4092C176.149 29.551 175.969 29.6612 175.764 29.7398C175.56 29.8183 175.354 29.8576 175.147 29.8576C174.835 29.8576 174.548 29.778 174.285 29.6187C174.023 29.4572 173.814 29.2368 173.659 28.9574C173.506 28.6781 173.429 28.3726 173.429 28.0409C173.429 27.7114 173.506 27.407 173.659 27.1277C173.812 26.8483 174.02 26.6268 174.282 26.4632C174.547 26.2995 174.833 26.2177 175.141 26.2177C175.402 26.2177 175.649 26.2766 175.882 26.3944C176.116 26.5123 176.315 26.6792 176.481 26.8953C176.638 27.1004 176.746 27.335 176.806 27.599C176.827 27.6972 176.843 27.8893 176.856 28.1751ZM173.882 27.7463H176.4C176.367 27.5477 176.289 27.3655 176.167 27.1997C176.048 27.0338 175.897 26.904 175.715 26.8101C175.535 26.7141 175.346 26.6661 175.147 26.6661C174.945 26.6661 174.756 26.7109 174.58 26.8003C174.406 26.8876 174.258 27.0142 174.136 27.18C174.014 27.3437 173.93 27.5325 173.882 27.7463Z" fill="#46B651"/>
<path d="M177.479 29.7791V26.293H177.898V26.7938C177.96 26.6716 178.022 26.5799 178.084 26.5188C178.16 26.4381 178.251 26.3737 178.357 26.3257C178.474 26.2711 178.642 26.2351 178.859 26.2177V26.6825C178.669 26.7043 178.514 26.7512 178.394 26.8232C178.218 26.9411 178.089 27.0862 178.006 27.2586C177.95 27.3699 177.922 27.5597 177.922 27.8282V29.7791H177.479Z" fill="#46B651"/>
<path d="M179.023 28.7512H179.467C179.475 28.9476 179.534 29.1069 179.643 29.2291C179.755 29.3492 179.898 29.4092 180.071 29.4092C180.237 29.4092 180.374 29.3546 180.484 29.2455C180.593 29.1342 180.648 28.9945 180.648 28.8265C180.648 28.6454 180.585 28.4981 180.459 28.3846C180.364 28.2995 180.214 28.2253 180.009 28.162C179.803 28.0966 179.652 28.0344 179.557 27.9755C179.28 27.7987 179.141 27.5368 179.141 27.1899C179.141 26.9193 179.234 26.689 179.42 26.4992C179.602 26.3115 179.825 26.2177 180.09 26.2177C180.348 26.2177 180.562 26.305 180.732 26.4795C180.903 26.6541 180.997 26.8822 181.014 27.1637H180.561C180.555 27.0087 180.506 26.8876 180.415 26.8003C180.327 26.7109 180.208 26.6661 180.059 26.6661C179.925 26.6661 179.812 26.7141 179.721 26.8101C179.632 26.9062 179.588 27.024 179.588 27.1637C179.588 27.3077 179.636 27.4288 179.733 27.527C179.795 27.575 179.847 27.6088 179.888 27.6285C179.932 27.6481 180.027 27.683 180.174 27.7332C180.395 27.8096 180.575 27.8936 180.713 27.9853C180.848 28.0769 180.945 28.1849 181.005 28.3093C181.065 28.4315 181.095 28.5788 181.095 28.7512C181.095 29.0676 180.995 29.3317 180.797 29.5434C180.598 29.7529 180.348 29.8576 180.047 29.8576C179.852 29.8576 179.676 29.8107 179.519 29.7169C179.362 29.623 179.24 29.4921 179.153 29.3241C179.067 29.156 179.023 28.9651 179.023 28.7512Z" fill="#46B651"/>
<path d="M181.634 29.7791V25.072H182.078V26.7938C182.197 26.593 182.343 26.4468 182.515 26.3552C182.688 26.2635 182.905 26.2177 183.166 26.2177C183.639 26.2177 184.001 26.3835 184.251 26.7152C184.35 26.8462 184.425 26.9935 184.474 27.1571C184.528 27.3492 184.555 27.611 184.555 27.9427V29.7791H184.102V27.9427C184.102 27.7878 184.092 27.635 184.071 27.4845C184.032 27.227 183.928 27.0262 183.758 26.8822C183.589 26.7381 183.374 26.6661 183.113 26.6661C182.94 26.6661 182.773 26.7065 182.614 26.7872C182.461 26.8636 182.34 26.9673 182.251 27.0982C182.183 27.192 182.136 27.2979 182.112 27.4157C182.089 27.5336 182.078 27.7092 182.078 27.9427V29.7791H181.634Z" fill="#46B651"/>
<path d="M185.312 29.7791V26.293H185.755V29.7791H185.312ZM185.312 25.8773V25.072H185.755V25.8773H185.312Z" fill="#46B651"/>
<path d="M186.521 26.2897H186.94V26.8953C187.035 26.7534 187.117 26.6552 187.188 26.6007C187.496 26.3453 187.853 26.2177 188.26 26.2177C188.513 26.2177 188.756 26.2755 188.989 26.3912C189.223 26.5112 189.428 26.6792 189.606 26.8953C189.869 27.2051 190 27.5892 190 28.0475C190 28.3792 189.92 28.6836 189.761 28.9607C189.604 29.2357 189.389 29.4539 189.116 29.6154C188.845 29.7769 188.55 29.8576 188.229 29.8576C187.814 29.8576 187.471 29.7256 187.2 29.4615C187.121 29.3895 187.043 29.2782 186.964 29.1277V31H186.521V26.2897ZM188.229 29.4092C188.424 29.4004 188.602 29.3622 188.763 29.2946C188.924 29.2248 189.065 29.1288 189.184 29.0065C189.304 28.8843 189.396 28.7425 189.46 28.581C189.525 28.4173 189.557 28.2395 189.557 28.0475C189.557 27.8009 189.498 27.5706 189.38 27.3568C189.264 27.1429 189.106 26.9749 188.905 26.8527C188.703 26.7283 188.484 26.6661 188.248 26.6661C188.002 26.6661 187.779 26.7261 187.578 26.8462C187.378 26.9662 187.22 27.1309 187.104 27.3404C186.99 27.5499 186.933 27.7834 186.933 28.0409C186.933 28.2919 186.99 28.5221 187.104 28.7316C187.218 28.9389 187.372 29.1037 187.566 29.2259C187.76 29.3481 187.973 29.4092 188.205 29.4092H188.229Z" fill="#46B651"/>
</svg>